<svg width="32" height="32" viewBox="0 0 32 32" fill="none" xmlns="http://www.w3.org/2000/svg">
    <rect width="32" height="32" fill="none"/>
    <path fill-rule="evenodd" clip-rule="evenodd" d="M22.3946 13.1465C22.3191 13.0152 22.1673 12.7482 22.0345 12.5162L24.6714 10.9941C24.5516 10.7858 24.431 10.576 24.3089 10.3654C20.0615 3.00802 16.0711 -2.64183 9.26685 1.28674C2.46262 5.21531 5.36041 11.4954 9.6079 18.8535C9.71167 19.0321 9.85587 19.2839 9.97032 19.4822L7.33194 21.0059C7.45173 21.2142 7.57228 21.424 7.69359 21.6346C11.9418 28.992 15.9322 34.6418 22.7365 30.7133C29.5407 26.7847 26.6429 20.5046 22.3946 13.1465ZM22.1543 23.6153C19.7135 25.0237 17.4505 21.556 14.8999 17.1391C14.8274 17.0132 14.7549 16.8873 14.6825 16.7622L12.0265 18.2958L12.0487 18.2813C11.9762 18.1569 11.9029 18.031 11.8305 17.9044C9.27982 13.4875 7.409 9.79394 9.849 8.38472C12.289 6.97627 14.5528 10.444 17.1026 14.8609C17.1759 14.9868 17.2484 15.1127 17.3201 15.2378L19.9615 13.7126L19.9546 13.7187C20.0271 13.8431 20.0996 13.969 20.1728 14.0956C22.7227 18.5125 24.5943 22.2061 22.1543 23.6153Z" fill="white"/>
</svg>

